<svg width="1024" height="1024" viewBox="0 0 1024 1024" fill="none" xmlns="http://www.w3.org/2000/svg">
<g clip-path="url(#clip0_351_210)">
<circle opacity="0.24" cx="512" cy="512" r="512" fill="white"/>
<circle opacity="0.5" cx="512" cy="512" r="456" fill="white"/>
<circle cx="512" cy="512" r="400" fill="white"/>
<circle cx="512" cy="512" r="344" fill="#D3AE5A"/>
<g clip-path="url(#clip1_351_210)">
<path d="M351 448C396.225 448 433 411.225 433 366C433 320.775 396.196 284 351 284C305.804 284 269 320.775 269 366C269 411.225 305.804 448 351 448Z" fill="white"/>
<path d="M673 448C718.225 448 755 411.225 755 366C755 320.775 718.196 284 673 284C627.804 284 591 320.775 591 366C591 411.225 627.804 448 673 448Z" fill="white"/>
<rect x="497" y="264" width="32" height="600" fill="white"/>
<path d="M255.166 497.993C254 484.001 265.042 472 279.083 472H422.917C436.958 472 448 484.001 446.834 497.993L430.834 689.993C429.797 702.432 419.399 712 406.917 712H295.083C282.601 712 272.203 702.432 271.166 689.993L255.166 497.993Z" fill="white"/>
<path d="M577.021 702.131C575.931 716.08 586.957 728 600.948 728H745.052C759.043 728 770.069 716.08 768.979 702.131L752.729 494.131C751.753 481.639 741.332 472 728.802 472H617.198C604.668 472 594.247 481.639 593.271 494.131L577.021 702.131Z" fill="white"/>
<path d="M287 686H415V881L287 823V686Z" fill="white"/>
<path d="M737 686H609V881L737 823V686Z" fill="white"/>
</g>
</g>
<defs>
<clipPath id="clip0_351_210">
<rect width="1024" height="1024" fill="white"/>
</clipPath>
<clipPath id="clip1_351_210">
<rect width="518" height="617" fill="white" transform="translate(253 264)"/>
</clipPath>
</defs>
</svg>
