<svg width="1024" height="1024" viewBox="0 0 1024 1024" fill="none" xmlns="http://www.w3.org/2000/svg">
<g clip-path="url(#clip0_509_413)">
<circle opacity="0.24" cx="512" cy="512" r="512" fill="white"/>
<circle opacity="0.5" cx="512" cy="512" r="456" fill="white"/>
<circle cx="512" cy="512" r="400" fill="white"/>
<circle cx="512" cy="512" r="344" fill="#D3AE5A"/>
<path fill-rule="evenodd" clip-rule="evenodd" d="M388.619 272C384.54 272 380.529 273.039 376.964 275.02L308.345 313.142C300.725 317.375 296 325.406 296 334.122V608L296 689.878C296 698.594 300.725 706.625 308.345 710.858L376.964 748.98C380.529 750.961 384.54 752 388.619 752L635.381 752C639.46 752 643.471 750.961 647.036 748.98L715.655 710.858C723.275 706.625 728 698.594 728 689.878V608L728 416L728 334.122C728 325.406 723.275 317.375 715.655 313.142L647.036 275.02C643.471 273.039 639.46 272 635.381 272H560C546.745 272 536 282.745 536 296V350.783C536 362.197 544.159 371.792 554.821 375.866C592.75 390.358 621.441 423.542 629.63 464.151C632.25 477.144 621.255 488 608 488H416C402.745 488 391.75 477.144 394.37 464.151C402.559 423.542 431.25 390.358 469.179 375.866C479.841 371.792 488 362.197 488 350.783V296C488 282.745 477.255 272 464 272H388.619ZM620 512C626.627 512 632 517.373 632 524V524C632 530.627 626.627 536 620 536H404C397.373 536 392 530.627 392 524V524C392 517.373 397.373 512 404 512H620ZM428 572C428 565.373 433.373 560 440 560C446.627 560 452 565.373 452 572V596C452 602.627 446.627 608 440 608C433.373 608 428 602.627 428 596V572ZM512 560C505.373 560 500 565.373 500 572V596C500 602.627 505.373 608 512 608C518.627 608 524 602.627 524 596V572C524 565.373 518.627 560 512 560ZM572 572C572 565.373 577.373 560 584 560C590.627 560 596 565.373 596 572V596C596 602.627 590.627 608 584 608C577.373 608 572 602.627 572 596V572Z" fill="white"/>
</g>
<defs>
<clipPath id="clip0_509_413">
<rect width="1024" height="1024" fill="white"/>
</clipPath>
</defs>
</svg>
