<svg width="1024" height="1024" viewBox="0 0 1024 1024" fill="none" xmlns="http://www.w3.org/2000/svg">
<g clip-path="url(#clip0_528_602)">
<circle opacity="0.24" cx="512" cy="512" r="512" fill="white"/>
<circle opacity="0.5" cx="512" cy="512" r="456" fill="white"/>
<circle cx="512" cy="512" r="400" fill="white"/>
<circle cx="512" cy="512" r="344" fill="#D3AE5A"/>
<rect x="429.842" y="252" width="164.211" height="54.7368" fill="#D9D9D9"/>
<rect x="429.842" y="252" width="164.211" height="54.7368" fill="white"/>
<rect x="293" y="635.158" width="437.895" height="54.7368" fill="white"/>
<path d="M402.474 635.158H457.21V772H375.105L402.474 635.158Z" fill="white"/>
<path d="M566.684 635.158H621.421L648.789 772H566.684V635.158Z" fill="white"/>
<path fill-rule="evenodd" clip-rule="evenodd" d="M703.526 306.737H320.368V635.158H703.526V306.737ZM536.803 410.602C528.979 386.524 494.915 386.524 487.092 410.602C483.593 421.37 473.559 428.661 462.237 428.661C436.919 428.661 426.393 461.058 446.875 475.939C456.035 482.594 459.868 494.39 456.369 505.158C448.546 529.236 476.104 549.258 496.586 534.377C505.746 527.722 518.149 527.722 527.309 534.377C547.791 549.258 575.349 529.236 567.526 505.158C564.027 494.39 567.86 482.594 577.02 475.939C597.502 461.058 586.975 428.661 561.658 428.661C550.336 428.661 540.301 421.37 536.803 410.602Z" fill="white"/>
</g>
<defs>
<clipPath id="clip0_528_602">
<rect width="1024" height="1024" fill="white"/>
</clipPath>
</defs>
</svg>
