<svg width="1024" height="1024" viewBox="0 0 1024 1024" fill="none" xmlns="http://www.w3.org/2000/svg">
<g clip-path="url(#clip0_528_631)">
<circle opacity="0.24" cx="512" cy="512" r="512" fill="white"/>
<circle opacity="0.5" cx="512" cy="512" r="456" fill="white"/>
<circle cx="512" cy="512" r="400" fill="white"/>
<circle cx="512" cy="512" r="344" fill="#D3AE5A"/>
<path d="M416 464V392C416 338.981 458.981 296 512 296V296C565.019 296 608 338.981 608 392V464" stroke="white" stroke-width="48"/>
<path fill-rule="evenodd" clip-rule="evenodd" d="M320 416H704V752H320V416ZM478.789 488.847C463.484 486.04 446.703 490.177 434.219 501.743C421.432 513.589 414.005 532.434 416.47 556.836C417.566 567.687 422.59 579.183 428.99 590.093C435.505 601.2 444.018 612.647 453.114 623.547C471.266 645.299 492.379 665.628 506.384 677.802C509.547 680.638 514.172 680.793 517.51 677.894C531.515 665.73 552.688 645.353 570.886 623.547C579.982 612.647 588.495 601.2 595.01 590.093C601.41 579.183 606.434 567.687 607.53 556.836C609.995 532.434 602.568 513.589 589.781 501.743C577.297 490.177 560.516 486.04 545.211 488.847C529.267 491.77 518.612 500.934 512 511.17C505.388 500.934 494.733 491.77 478.789 488.847Z" fill="white"/>
</g>
<defs>
<clipPath id="clip0_528_631">
<rect width="1024" height="1024" fill="white"/>
</clipPath>
</defs>
</svg>
